<svg version="1.2" xmlns="http://www.w3.org/2000/svg" viewBox="0 0 376 435" width="376" height="435"><defs><linearGradient id="P" gradientUnits="userSpaceOnUse"/><linearGradient id="g1" x2="1" href="#P" gradientTransform="matrix(0,-125.677,55.047,0,130.238,397.947)"><stop offset=".41" stop-color="#80e1e6"/><stop offset=".9" stop-color="#64b0fb"/></linearGradient><linearGradient id="g2" x2="1" href="#P" gradientTransform="matrix(0,-158.854,87.161,0,204.418,407.981)"><stop offset=".42" stop-color="#80e1e6" stop-opacity="0"/><stop offset=".83" stop-color="#64b0fb" stop-opacity="1"/></linearGradient><linearGradient id="g3" x2="1" href="#P" gradientTransform="matrix(0,455.703,-393.517,0,439.168,-48.476)"><stop offset=".41" stop-color="#80e1e6"/><stop offset=".9" stop-color="#64b0fb"/></linearGradient></defs><style>.a{fill:url(#g1)}.b{mix-blend-mode:multiply;fill:url(#g2)}.c{fill:url(#g3)}</style><path class="a" d="m295.5 336.4v10.4c0 21.6 17.6 39.2 39.2 39.2 21.7 0 39.3-17.6 39.3-39.2v-139.9c-6.4 57.9-35.5 103-78.5 129.5z"/><path class="b" d="m374 349.9v-143c-6.4 57.9-35.5 103-78.5 129.5v13.5z"/><path fill-rule="evenodd" class="c" d="m375.3 182.2c0 8.5-0.5 16.7-1.3 24.7-6.4 57.9-35.5 103-78.5 129.5-27.8 17.1-61.6 26.5-98.9 26.5-21.1 0-41.9-0.6-62.6-5.1-6.1-1.3-50.2-12.4-50.2-19.5v54.7c0 22.7-18.4 41.2-41.2 41.2-22.8 0-41.2-18.5-41.2-41.2v-193.7q-0.7-8.5-0.7-17.4 0-8.9 0.7-17.4c4.6-61.3 33.9-108.7 78.4-136.2 59.9-36.8 150.9-37 211.7-2 45.3 26.1 75.9 72.1 82.5 131.4 0.8 7.9 1.3 16.1 1.3 24.5zm-83.7 0c0-67.2-44.9-110.1-104.3-110.1-14.5 0-28.2 2.5-40.6 7.4q-1.2 0.5-2.4 1c-36.3 15.7-60.5 52-60.5 101.4 0 67.3 44.9 110.1 104.2 110.1 12.7 0 24.8-1.9 35.9-5.6q1.2-0.4 2.4-0.9c39-14.6 65.3-51.8 65.3-103.3z"/></svg>